<?xml version="1.0" encoding="UTF-8" standalone="no"?>
<svg
   xmlns:dc="http://purl.org/dc/elements/1.1/"
   xmlns:cc="http://creativecommons.org/ns#"
   xmlns:rdf="http://www.w3.org/1999/02/22-rdf-syntax-ns#"
   xmlns:svg="http://www.w3.org/2000/svg"
   xmlns="http://www.w3.org/2000/svg"
   xmlns:sodipodi="http://sodipodi.sourceforge.net/DTD/sodipodi-0.dtd"
   xmlns:inkscape="http://www.inkscape.org/namespaces/inkscape"
   width="173.01259"
   height="23.766644"
   viewBox="0 0 173.01259 23.766644"
   version="1.1"
   id="svg8"
   sodipodi:docname="logo_.svg"
   inkscape:version="1.0.1 (3bc2e813f5, 2020-09-07)">
  <metadata
     id="metadata14">
    <rdf:RDF>
      <cc:Work
         rdf:about="">
        <dc:format>image/svg+xml</dc:format>
        <dc:type
           rdf:resource="http://purl.org/dc/dcmitype/StillImage" />
        <dc:title>logo</dc:title>
      </cc:Work>
    </rdf:RDF>
  </metadata>
  <defs
     id="defs12" />
  <sodipodi:namedview
     pagecolor="#ffffff"
     bordercolor="#666666"
     borderopacity="1"
     objecttolerance="10"
     gridtolerance="10"
     guidetolerance="10"
     inkscape:pageopacity="0"
     inkscape:pageshadow="2"
     inkscape:window-width="1920"
     inkscape:window-height="987"
     id="namedview10"
     showgrid="false"
     inkscape:zoom="6.7541666"
     inkscape:cx="87.060995"
     inkscape:cy="33.971877"
     inkscape:window-x="0"
     inkscape:window-y="0"
     inkscape:window-maximized="1"
     inkscape:current-layer="text30"
     fit-margin-top="0"
     fit-margin-left="0"
     fit-margin-right="0"
     fit-margin-bottom="0"
     inkscape:document-rotation="0" />
  <title
     id="title2">logo</title>
  <g
     aria-label="Mostafa"
     id="text18"
     style="font-style:normal;font-variant:normal;font-weight:normal;font-stretch:normal;font-size:33.3333px;line-height:1.25;font-family:'EB Garamond';-inkscape-font-specification:'EB Garamond, Normal';font-variant-ligatures:normal;font-variant-caps:normal;font-variant-numeric:normal;font-variant-east-asian:normal;letter-spacing:0px;word-spacing:0px;fill:#2f2f41;fill-opacity:1;stroke:none;stroke-width:0.5;stroke-miterlimit:4;stroke-dasharray:none;stroke-opacity:1">
    <path
       d="M 66.229606,18.949979 65.66294,7.9499898 c -0.1,-1.8999982 0.266666,-2.5666642 1.299999,-2.9999971 1.333332,-0.5666662 1.599998,-0.6666661 1.599998,-0.9999991 0,-0.333333 -0.133333,-0.5666661 -0.533333,-0.5666661 -1.066665,0 -3.366663,0.333333 -4.233329,0.333333 -0.866666,0 -1.333332,0 -1.699998,0.7666659 L 56.862948,15.349983 c -0.633332,1.266665 -0.766666,0.733332 -1.033332,0.03333 L 51.92962,5.8166585 c -0.633333,-1.4999986 -1.199999,-2.099998 -2.099998,-2.099998 -1.533332,0 -2.499998,-0.1666665 -3.699997,-0.1666665 -0.399999,0 -1.133332,-0.033333 -1.133332,0.4666662 0,0.5333328 1.199999,1.0333324 1.799998,1.5999985 0.833333,0.7666659 1.366666,1.3999987 1.066666,3.7666631 L 46.729625,18.24998 c -0.233333,1.666665 -0.799999,2.999997 -1.933332,3.499997 -0.766666,0.333333 -1.833331,0.499999 -1.833331,0.999999 0,0.333333 0.733332,0.533333 1.099999,0.566666 0.233333,0 1.499998,-0.2 3.066663,-0.2 1.599999,0 3.066664,0.2 3.299997,0.2 0.366667,-0.03333 1.066666,-0.233333 1.066666,-0.566666 0,-0.5 -1.099999,-0.666666 -1.833332,-0.999999 -0.866666,-0.4 -1.099999,-2.033332 -1.033332,-2.933331 l 0.566666,-9.299991 c 0.03333,-0.8333326 0.333333,-1.2999988 0.833333,-0.033333 l 4.099996,10.4999903 c 0.699999,1.799998 0.966665,2.066664 1.299998,2.066664 0.3,0 1.699999,-2.866664 1.833332,-3.166663 L 61.762944,8.5499892 c 0.233333,-0.5999994 0.833332,-0.7333326 0.866666,-0.1 l 0.433333,10.4999897 c 0.06667,1.233332 -0.433333,2.299998 -1.566666,2.799998 -0.733332,0.333333 -1.833331,0.499999 -1.833331,0.999999 0,0.333333 0.733332,0.533333 1.099999,0.566666 0.233333,0 2.199998,-0.2 3.766663,-0.2 1.599998,0 3.799996,0.2 4.033329,0.2 0.366667,-0.03333 1.066666,-0.233333 1.066666,-0.566666 0,-0.5 -1.099999,-0.666666 -1.833332,-0.999999 -1.133332,-0.5 -1.499998,-1.566666 -1.566665,-2.799998 z"
       style="font-style:normal;font-variant:normal;font-weight:normal;font-stretch:normal;font-size:33.3333px;font-family:'EB Garamond';-inkscape-font-specification:'EB Garamond, Normal';font-variant-ligatures:normal;font-variant-caps:normal;font-variant-numeric:normal;font-variant-east-asian:normal;fill:#2f2f41;fill-opacity:1;stroke:none;stroke-width:0.5;stroke-miterlimit:4;stroke-dasharray:none;stroke-opacity:1"
       id="path836" />
    <path
       d="m 73.354079,15.349983 c 0,-2.399998 1.266666,-5.033329 3.666663,-5.033329 2.899998,0 4.43333,3.199997 4.43333,6.166661 0,2.466664 -1.033333,5.466661 -3.499997,5.466661 -3.099997,0 -4.599996,-3.466663 -4.599996,-6.599993 z m 3.899997,-6.4333275 c -3.599997,0 -7.233327,3.1666635 -7.233327,7.1666595 0,3.966663 2.999997,7.433327 7.06666,7.433327 4.266663,0 7.666659,-3.63333 7.666659,-7.933326 0,-3.866663 -3.633329,-6.6666605 -7.499992,-6.6666605 z"
       style="font-style:normal;font-variant:normal;font-weight:normal;font-stretch:normal;font-size:33.3333px;font-family:'EB Garamond';-inkscape-font-specification:'EB Garamond, Normal';font-variant-ligatures:normal;font-variant-caps:normal;font-variant-numeric:normal;font-variant-east-asian:normal;fill:#2f2f41;fill-opacity:1;stroke:none;stroke-width:0.5;stroke-miterlimit:4;stroke-dasharray:none;stroke-opacity:1"
       id="path838" />
    <path
       d="m 90.931669,8.9166555 c -2.333331,0 -4.266663,1.8999985 -4.266663,4.1666625 0,1.666665 1.299999,2.699998 2.799997,3.73333 l 1.599999,1.133332 c 0.799999,0.6 1.499999,0.933333 1.499999,2.399998 0,0.999999 -0.966666,1.666665 -1.966665,1.666665 -1.099999,0 -2.133332,-0.366666 -2.566664,-1.266665 -0.466667,-1.033333 -1.133333,-1.333332 -1.466666,-1.333332 -0.333333,0 -0.366666,0.499999 -0.366666,1.066665 0,0.5 0.4,1.666665 0.566666,2.099998 0.166667,0.433333 0.333333,0.466666 0.833333,0.666666 0.333333,0.133333 1.266665,0.266667 2.199998,0.266667 2.73333,0 5.033328,-2.033332 5.033328,-4.866662 0,-1.166666 -0.699999,-1.933332 -1.599998,-2.666665 l -2.733331,-2.066664 c -0.766666,-0.533333 -1.433332,-1.099999 -1.433332,-2.033332 0,-0.833332 0.699999,-1.433332 1.533332,-1.433332 1.033332,0 1.999998,0.566667 2.266664,1.333332 0.166667,0.666667 0.666666,0.833333 0.999999,0.833333 0.4,0 0.4,-0.333333 0.4,-0.733333 0,-0.299999 -0.06667,-1.266665 -0.166667,-1.633331 -0.1,-0.3333334 -0.166666,-0.4333333 -0.366666,-0.5333332 C 92.665,9.2833219 91.965001,8.9166555 90.931669,8.9166555 Z"
       style="font-style:normal;font-variant:normal;font-weight:normal;font-stretch:normal;font-size:33.3333px;font-family:'EB Garamond';-inkscape-font-specification:'EB Garamond, Normal';font-variant-ligatures:normal;font-variant-caps:normal;font-variant-numeric:normal;font-variant-east-asian:normal;fill:#2f2f41;fill-opacity:1;stroke:none;stroke-width:0.5;stroke-miterlimit:4;stroke-dasharray:none;stroke-opacity:1"
       id="path840" />
    <path
       d="m 101.72437,23.516642 c 1.99999,0 3.79999,-1.633332 3.79999,-2.399998 0,-0.333333 -0.16666,-0.466666 -0.5,-0.466666 -0.33333,0 -1.16666,0.599999 -2.39999,0.599999 -1.16667,0 -1.73334,-0.733333 -1.73334,-3.066664 v -6.233327 c 0,-0.466666 0.13334,-0.633333 0.53334,-0.633333 h 3.29999 c 0.46667,0 0.8,-0.866666 0.8,-1.199999 0,-0.3333326 -0.13333,-0.7666655 -0.66666,-0.7666655 h -3.23333 c -0.43334,0 -0.73334,-0.1666665 -0.73334,-0.4999996 V 7.9166565 c 0,-0.5666661 -0.0667,-0.8333325 -0.46666,-0.8333325 -0.433335,0 -1.700001,1.2666654 -2.166667,1.666665 -0.833333,0.6999994 -2.233331,1.633332 -2.233331,2.099998 0,0.333333 0.766666,0.466666 1.066665,0.466666 1.233332,0 1.033333,0.166667 1.033333,0.466666 v 7.933326 c 0,2.833331 1.633331,3.799997 3.6,3.799997 z"
       style="font-style:normal;font-variant:normal;font-weight:normal;font-stretch:normal;font-size:33.3333px;font-family:'EB Garamond';-inkscape-font-specification:'EB Garamond, Normal';font-variant-ligatures:normal;font-variant-caps:normal;font-variant-numeric:normal;font-variant-east-asian:normal;fill:#2f2f41;fill-opacity:1;stroke:none;stroke-width:0.5;stroke-miterlimit:4;stroke-dasharray:none;stroke-opacity:1"
       id="path842" />
    <path
       d="m 110.03165,18.883313 c 0,-0.566666 0.5,-1.233332 1.66667,-1.599999 l 1.59999,-0.633333 c 0.36667,-0.133333 0.76667,-0.133333 0.76667,0.233334 v 3.13333 c 0,0.799999 -1.13333,1.266665 -2.06667,1.266665 -1.19999,0 -1.96666,-0.766666 -1.96666,-2.399997 z m 2.46666,-9.9666575 c -1.23333,0 -2.49999,0.766666 -3.66666,1.5666655 -0.7,0.499999 -1.26666,1.499998 -1.26666,2.266664 0,0.266667 0.0667,1.133332 0.26666,1.133332 0.33334,0 1.66667,-0.566666 1.86667,-0.699999 0.3,-0.2 0.33333,-0.466666 0.33333,-1.299999 0,-0.699999 0.83333,-0.966665 1.53333,-0.966665 1.16667,0 2.43333,0.866665 2.43333,2.033331 v 1.633332 c 0,0.333333 -0.16666,0.499999 -0.76666,0.766666 l -4.36667,1.833331 c -0.99999,0.433333 -1.79999,1.466666 -1.79999,3.133331 0,1.666665 1.66666,3.199997 3.29999,3.199997 1.3,0 2.63333,-0.666666 3.4,-1.433332 0.23333,-0.233333 0.26667,-0.266667 0.5,0.06667 0.43333,0.6 1.2,1.366666 2.3,1.366666 1.33333,0 2.99999,-0.866666 2.99999,-2.066665 0,-0.366666 -0.1,-0.733333 -0.3,-0.733333 -0.23333,0 -0.73333,0.433333 -1.19999,0.433333 -0.56667,0 -1.2,-0.399999 -1.2,-0.933332 v -7.899993 c 0,-1.766665 -1.53333,-3.3999965 -4.36667,-3.3999965 z"
       style="font-style:normal;font-variant:normal;font-weight:normal;font-stretch:normal;font-size:33.3333px;font-family:'EB Garamond';-inkscape-font-specification:'EB Garamond, Normal';font-variant-ligatures:normal;font-variant-caps:normal;font-variant-numeric:normal;font-variant-east-asian:normal;fill:#2f2f41;fill-opacity:1;stroke:none;stroke-width:0.5;stroke-miterlimit:4;stroke-dasharray:none;stroke-opacity:1"
       id="path844" />
    <path
       d="m 130.77173,0.24999714 c -4.59999,0 -7.49999,3.89999626 -7.49999,8.49999186 0,0.3666663 -0.0667,0.8333326 -0.43333,0.9666658 -0.93333,0.3333332 -2.03333,0.8666662 -2.03333,1.3333322 0,0.333333 0.76666,0.466666 1.06666,0.466666 1.23334,0 1.4,0.2 1.4,0.466666 v 7.66666 c 0,0.833332 -0.36666,1.866665 -1.26666,2.133331 -0.9,0.266666 -1.46667,0.533333 -1.46667,0.866666 0,0.333333 0.3,0.666666 1.16667,0.666666 0.73333,0 2.26666,-0.2 2.93333,-0.2 0.53333,0 2.43333,0.2 3.16666,0.2 0.86667,0 1.16667,-0.333333 1.16667,-0.666666 0,-0.333333 -0.56667,-0.6 -1.46667,-0.866666 -1.2,-0.366666 -1.46666,-1.299999 -1.46666,-2.133331 v -7.46666 c 0,-0.466666 0.13333,-0.766666 0.53333,-0.766666 h 2.36666 c 0.46667,0 0.76667,-0.799999 0.76667,-1.133332 0,-0.3333331 -0.23333,-0.766666 -0.76667,-0.766666 l -2.16666,0.066667 c -0.43333,0 -0.73333,0.1666665 -0.73333,-0.333333 V 5.7499919 c 0,-1.9666648 1.33333,-3.6333299 3.59999,-3.6333299 0.96667,0 1.66667,0.3666663 2.03333,0.8999992 0.5,0.6999993 0.93334,1.5999984 1.73334,1.5999984 0.83333,0 1.23333,-0.7333326 1.23333,-1.5333318 0,-1.2333322 -2.16667,-2.83333066 -3.86667,-2.83333066 z"
       style="font-style:normal;font-variant:normal;font-weight:normal;font-stretch:normal;font-size:33.3333px;font-family:'EB Garamond';-inkscape-font-specification:'EB Garamond, Normal';font-variant-ligatures:normal;font-variant-caps:normal;font-variant-numeric:normal;font-variant-east-asian:normal;fill:#2f2f41;fill-opacity:1;stroke:none;stroke-width:0.5;stroke-miterlimit:4;stroke-dasharray:none;stroke-opacity:1"
       id="path846" />
    <path
       d="m 134.05506,18.883313 c 0,-0.566666 0.5,-1.233332 1.66667,-1.599999 l 1.6,-0.633333 c 0.36666,-0.133333 0.76666,-0.133333 0.76666,0.233334 v 3.13333 c 0,0.799999 -1.13333,1.266665 -2.06666,1.266665 -1.2,0 -1.96667,-0.766666 -1.96667,-2.399997 z m 2.46667,-9.9666575 c -1.23333,0 -2.5,0.766666 -3.66666,1.5666655 -0.7,0.499999 -1.26667,1.499998 -1.26667,2.266664 0,0.266667 0.0667,1.133332 0.26667,1.133332 0.33333,0 1.66666,-0.566666 1.86666,-0.699999 0.3,-0.2 0.33333,-0.466666 0.33333,-1.299999 0,-0.699999 0.83334,-0.966665 1.53334,-0.966665 1.16666,0 2.43333,0.866665 2.43333,2.033331 v 1.633332 c 0,0.333333 -0.16667,0.499999 -0.76667,0.766666 l -4.36666,1.833331 c -1,0.433333 -1.8,1.466666 -1.8,3.133331 0,1.666665 1.66667,3.199997 3.3,3.199997 1.3,0 2.63333,-0.666666 3.39999,-1.433332 0.23334,-0.233333 0.26667,-0.266667 0.5,0.06667 0.43334,0.6 1.2,1.366666 2.3,1.366666 1.33333,0 3,-0.866666 3,-2.066665 0,-0.366666 -0.1,-0.733333 -0.3,-0.733333 -0.23333,0 -0.73333,0.433333 -1.2,0.433333 -0.56667,0 -1.2,-0.399999 -1.2,-0.933332 v -7.899993 c 0,-1.766665 -1.53333,-3.3999965 -4.36666,-3.3999965 z"
       style="font-style:normal;font-variant:normal;font-weight:normal;font-stretch:normal;font-size:33.3333px;font-family:'EB Garamond';-inkscape-font-specification:'EB Garamond, Normal';font-variant-ligatures:normal;font-variant-caps:normal;font-variant-numeric:normal;font-variant-east-asian:normal;fill:#2f2f41;fill-opacity:1;stroke:none;stroke-width:0.5;stroke-miterlimit:4;stroke-dasharray:none;stroke-opacity:1"
       id="path848" />
  </g>
  <g
     aria-label=".site"
     id="text26"
     style="font-style:italic;font-variant:normal;font-weight:normal;font-stretch:normal;font-size:20px;line-height:1.25;font-family:'EB Garamond';-inkscape-font-specification:'EB Garamond, Italic';font-variant-ligatures:normal;font-variant-caps:normal;font-variant-numeric:normal;font-variant-east-asian:normal;letter-spacing:0px;word-spacing:0px;fill:#a00003;fill-opacity:1;stroke:none;stroke-width:0.5">
    <path
       d="m 146.05571,21.246644 c -0.76,0 -1.32,0.66 -1.32,1.4 0,0.66 0.56,1.12 1.22,1.12 0.7,0 1.3,-0.58 1.3,-1.3 0,-0.66 -0.54,-1.22 -1.2,-1.22 z"
       style="fill:#a00003;fill-opacity:1;stroke-width:0.5"
       id="path864" />
    <path
       d="m 152.74602,14.766644 c -1.52,0 -2.88,1.28 -2.88,2.6 0,0.3 0.1,0.7 0.22,0.86 0.96,1.62 1.58,2.86 1.58,3.32 0,0.48 -0.28,0.94 -0.76,0.94 -0.92,0 -1.6,-0.8 -1.8,-0.8 -0.36,0 -0.66,0.28 -0.66,0.6 0,0.78 0.62,1.36 1.42,1.36 1.38,0 3.24,-1.08 3.24,-2.74 0,-0.5 -0.14,-0.84 -0.48,-1.46 -0.66,-1.18 -1.4,-2.48 -1.4,-2.94 0,-0.28 0.2,-0.66 0.48,-0.66 0.82,0 1.56,0.8 1.8,0.8 0.3,0 0.62,-0.48 0.62,-0.72 0,-0.6 -0.7,-1.16 -1.38,-1.16 z"
       style="fill:#a00003;fill-opacity:1;stroke-width:0.5"
       id="path866" />
    <path
       d="m 158.58446,10.786644 c -0.58,0 -1.1,0.58 -1.1,1.14 0,0.54 0.3,0.9 0.84,0.9 0.56,0 1.1,-0.58 1.1,-1.16 0,-0.5 -0.34,-0.88 -0.84,-0.88 z m -0.42,3.98 c -0.64,0 -2.94,1.68 -2.94,2.1 0,0.2 0.06,0.42 0.24,0.42 0.12,0 0.68,-0.58 1.1,-0.58 0.22,0 0.08,0.38 0.04,0.54 l -1.24,4.96 c -0.04,0.16 -0.12,0.38 -0.12,0.62 0,0.44 0.22,0.82 0.88,0.82 1.2,0 2.8,-1.52 2.8,-2.22 0,-0.12 -0.02,-0.26 -0.14,-0.26 -0.3,0 -0.92,0.96 -1.64,0.96 -0.18,0 -0.22,-0.1 -0.16,-0.34 l 1.2,-4.82 c 0.16,-0.74 0.3,-1.26 0.3,-1.7 0,-0.26 -0.04,-0.5 -0.32,-0.5 z"
       style="fill:#a00003;fill-opacity:1;stroke-width:0.5"
       id="path868" />
    <path
       d="m 163.95696,13.026644 c -0.64,0 -1.16,0.82 -1.2,1.02 l -0.28,1.12 h -0.8 c -0.42,0 -0.84,0.52 -0.84,0.84 0,0.2 0.22,0.28 0.46,0.28 h 0.94 l -1.56,5.92 c -0.06,0.16 -0.12,0.38 -0.12,0.62 0,0.44 0.22,0.82 0.88,0.82 1.2,0 2.8,-1.52 2.8,-2.22 0,-0.12 -0.02,-0.26 -0.14,-0.26 -0.3,0 -0.92,0.96 -1.64,0.96 -0.18,0 -0.24,-0.1 -0.16,-0.34 l 1.46,-5.5 h 1.86 c 0.42,0 0.92,-0.58 0.92,-0.82 0,-0.2 -0.28,-0.3 -0.52,-0.3 h -2.02 c 0.18,-0.7 0.3,-1.22 0.3,-1.64 0,-0.26 -0.06,-0.5 -0.34,-0.5 z"
       style="fill:#a00003;fill-opacity:1;stroke-width:0.5"
       id="path870" />
    <path
       d="m 168.55259,18.486644 c 0,-1.02 1.62,-2.92 2.24,-2.92 0.34,0 0.72,0.12 0.72,0.48 0,1.04 -1.3,2.58 -2.84,2.58 -0.08,0 -0.12,-0.06 -0.12,-0.14 z m 2.54,-3.72 c -2.28,0 -4.72,2.98 -4.72,5.94 0,1.4 0.72,2.9 2.1,2.9 1.52,0 3.18,-1.24 3.18,-1.8 0,-0.22 -0.04,-0.48 -0.28,-0.48 -0.18,0 -1.1,0.94 -2.02,0.94 -0.9,0 -1.22,-1 -1.22,-1.9 0,-0.4 0.14,-1 0.34,-1 1.56,0 4.54,-1.44 4.54,-3.06 0,-0.94 -0.6,-1.54 -1.92,-1.54 z"
       style="fill:#a00003;fill-opacity:1;stroke-width:0.5"
       id="path872" />
  </g>
  <g
     aria-label="this is"
     id="text30"
     style="font-style:normal;font-variant:normal;font-weight:normal;font-stretch:normal;font-size:20px;line-height:1.25;font-family:'EB Garamond';-inkscape-font-specification:'EB Garamond, Normal';font-variant-ligatures:normal;font-variant-caps:normal;font-variant-numeric:normal;font-variant-east-asian:normal;letter-spacing:0px;word-spacing:0px;fill:#002060;fill-opacity:1;stroke:none;stroke-width:0.5">
    <path
       d="m 3.42,13.78 c 1.2,0 2.28,-0.98 2.28,-1.44 0,-0.2 -0.1,-0.28 -0.3,-0.28 -0.2,0 -0.7,0.36 -1.44,0.36 -0.7,0 -1.04,-0.44 -1.04,-1.84 V 6.8399999 c 0,-0.28 0.08,-0.38 0.32,-0.38 h 1.98 c 0.28,0 0.48,-0.52 0.48,-0.72 0,-0.2 -0.08,-0.46 -0.4,-0.46 H 3.36 c -0.26,0 -0.44,-0.1 -0.44,-0.3 v -0.56 c 0,-0.34 -0.04,-0.5 -0.28,-0.5 -0.26,0 -1.02,0.76 -1.3,1 -0.50000001,0.42 -1.340000011920929,0.98 -1.340000011920929,1.26 0,0.2 0.460000001920929,0.28 0.640000001920929,0.28 0.74000001,0 0.62000001,0.1 0.62000001,0.28 V 11.5 c 0,1.7 0.98,2.28 2.16,2.28 z"
       style="fill:#002060;fill-opacity:1;stroke-width:0.5"
       id="path851" />
    <path
       d="M 15.164375,11.42 V 7.7999999 c 0,-1.46 -1.1,-2.78 -2.5,-2.78 -1.04,0 -1.82,0.24 -2.48,0.78 -0.16,0.14 -0.4,0.44 -0.4,-0.08 V 0.53999989 c 0,-0.38 0,-0.54000000444092 -0.24,-0.54000000444092 -0.2,0 -1.28,0.34000000444092 -2.08,0.48000000444092 -0.28,0.04 -0.58,0.2 -0.58,0.42 0,0.22000001 0.24,0.38000001 0.46,0.46000001 0.48,0.18 0.78,0.58 0.78,0.92 V 11.46 c 0,0.5 -0.22,1.12 -0.76,1.28 -0.54,0.16 -0.78,0.32 -0.78,0.52 0,0.2 0.08,0.4 0.6,0.4 0.44,0 1.38,-0.12 1.78,-0.12 0.32,0 1.02,0.12 1.46,0.12 0.52,0 0.58,-0.2 0.58,-0.4 0,-0.2 -0.22,-0.36 -0.76,-0.52 -0.38,-0.12 -0.46,-0.78 -0.46,-1.28 l 0.02,-3.2000001 c 0,-1.52 0.8,-2.2 1.96,-2.2 1.04,0 1.74,1.16 1.74,2.34 V 11.46 c 0,0.5 -0.1,1.18 -0.46,1.28 -0.54,0.16 -0.78,0.32 -0.78,0.52 0,0.2 0.08,0.4 0.6,0.4 0.44,0 1.08,-0.12 1.48,-0.12 0.32,0 1.32,0.12 1.76,0.12 0.52,0 0.54,-0.2 0.54,-0.4 0,-0.2 -0.18,-0.36 -0.72,-0.52 -0.54,-0.16 -0.74,-0.8 -0.76,-1.32 z"
       style="fill:#002060;fill-opacity:1;stroke-width:0.5"
       id="path853" />
    <path
       d="m 19.70375,0.71999989 c -0.6,0 -1.1,0.48000001 -1.1,1.08000001 0,0.62 0.48,1.12 1.1,1.12 0.62,0 1.1,-0.5 1.1,-1.12 0,-0.6 -0.5,-1.08000001 -1.1,-1.08000001 z m -0.72,6.86000001 V 11.46 c 0,0.5 -0.22,1.12 -0.76,1.28 -0.54,0.16 -0.88,0.32 -0.88,0.52 0,0.2 0.18,0.4 0.7,0.4 0.44,0 1.38,-0.12 1.78,-0.12 0.32,0 1.32,0.12 1.76,0.12 0.52,0 0.68,-0.2 0.68,-0.4 0,-0.2 -0.32,-0.36 -0.86,-0.52 -0.54,-0.16 -0.76,-0.78 -0.76,-1.28 V 5.4399999 c 0,-0.4 0,-0.58 -0.24,-0.58 -0.2,0 -1.86,0.66 -2.08,0.78 -0.26,0.12 -0.58,0.28 -0.58,0.5 0,0.22 0.2,0.34 0.42,0.42 0.48,0.18 0.82,0.68 0.82,1.02 z"
       style="fill:#002060;fill-opacity:1;stroke-width:0.5"
       id="path855" />
    <path
       d="m 25.811562,5.0199999 c -1.4,0 -2.56,1.14 -2.56,2.5 0,1 0.78,1.62 1.68,2.24 l 0.96,0.6800001 c 0.48,0.36 0.9,0.56 0.9,1.44 0,0.6 -0.58,1 -1.18,1 -0.66,0 -1.28,-0.22 -1.54,-0.76 -0.28,-0.62 -0.68,-0.8 -0.88,-0.8 -0.2,0 -0.22,0.3 -0.22,0.64 0,0.3 0.24,1 0.34,1.26 0.1,0.26 0.2,0.28 0.5,0.4 0.2,0.08 0.76,0.16 1.32,0.16 1.64,0 3.02,-1.22 3.02,-2.92 0,-0.7 -0.42,-1.1600001 -0.96,-1.6000001 l -1.64,-1.24 c -0.46,-0.32 -0.86,-0.66 -0.86,-1.22 0,-0.5 0.42,-0.86 0.92,-0.86 0.62,0 1.2,0.34 1.36,0.8 0.1,0.4 0.4,0.5 0.6,0.5 0.24,0 0.24,-0.2 0.24,-0.44 0,-0.18 -0.04,-0.76 -0.1,-0.98 -0.06,-0.2 -0.1,-0.26 -0.22,-0.32 -0.64,-0.26 -1.06,-0.48 -1.68,-0.48 z"
       style="fill:#002060;fill-opacity:1;stroke-width:0.5"
       id="path857" />
    <path
       d="m 35.367812,0.71999989 c -0.6,0 -1.1,0.48000001 -1.1,1.08000001 0,0.62 0.48,1.12 1.1,1.12 0.62,0 1.1,-0.5 1.1,-1.12 0,-0.6 -0.5,-1.08000001 -1.1,-1.08000001 z m -0.72,6.86000001 V 11.46 c 0,0.5 -0.22,1.12 -0.76,1.28 -0.54,0.16 -0.88,0.32 -0.88,0.52 0,0.2 0.18,0.4 0.7,0.4 0.44,0 1.38,-0.12 1.78,-0.12 0.32,0 1.32,0.12 1.76,0.12 0.52,0 0.68,-0.2 0.68,-0.4 0,-0.2 -0.32,-0.36 -0.86,-0.52 -0.54,-0.16 -0.76,-0.78 -0.76,-1.28 V 5.4399999 c 0,-0.4 0,-0.58 -0.24,-0.58 -0.2,0 -1.86,0.66 -2.08,0.78 -0.26,0.12 -0.58,0.28 -0.58,0.5 0,0.22 0.2,0.34 0.42,0.42 0.48,0.18 0.82,0.68 0.82,1.02 z"
       style="fill:#002060;fill-opacity:1;stroke-width:0.5"
       id="path859" />
    <path
       d="m 41.475625,5.0199999 c -1.4,0 -2.56,1.14 -2.56,2.5 0,1 0.78,1.62 1.68,2.24 l 0.96,0.6800001 c 0.48,0.36 0.9,0.56 0.9,1.44 0,0.6 -0.58,1 -1.18,1 -0.66,0 -1.28,-0.22 -1.54,-0.76 -0.28,-0.62 -0.68,-0.8 -0.88,-0.8 -0.2,0 -0.22,0.3 -0.22,0.64 0,0.3 0.24,1 0.34,1.26 0.1,0.26 0.2,0.28 0.5,0.4 0.2,0.08 0.76,0.16 1.32,0.16 1.64,0 3.02,-1.22 3.02,-2.92 0,-0.7 -0.42,-1.1600001 -0.96,-1.6000001 l -1.64,-1.24 c -0.46,-0.32 -0.86,-0.66 -0.86,-1.22 0,-0.5 0.42,-0.86 0.92,-0.86 0.62,0 1.2,0.34 1.36,0.8 0.1,0.4 0.4,0.5 0.6,0.5 0.24,0 0.24,-0.2 0.24,-0.44 0,-0.18 -0.04,-0.76 -0.1,-0.98 -0.06,-0.2 -0.1,-0.26 -0.22,-0.32 -0.64,-0.26 -1.06,-0.48 -1.68,-0.48 z"
       style="fill:#002060;fill-opacity:1;stroke-width:0.5"
       id="path861" />
  </g>
</svg>
