<?xml version="1.0" encoding="UTF-8" standalone="no"?>
<svg
   xmlns:dc="http://purl.org/dc/elements/1.1/"
   xmlns:cc="http://creativecommons.org/ns#"
   xmlns:rdf="http://www.w3.org/1999/02/22-rdf-syntax-ns#"
   xmlns:svg="http://www.w3.org/2000/svg"
   xmlns="http://www.w3.org/2000/svg"
   xmlns:sodipodi="http://sodipodi.sourceforge.net/DTD/sodipodi-0.dtd"
   xmlns:inkscape="http://www.inkscape.org/namespaces/inkscape"
   width="54px"
   height="54px"
   viewBox="0 0 54 54"
   version="1.1"
   id="svg9"
   sodipodi:docname="favicon-32x32_.svg"
   inkscape:version="1.0.1 (3bc2e813f5, 2020-09-07)">
  <metadata
     id="metadata15">
    <rdf:RDF>
      <cc:Work
         rdf:about="">
        <dc:format>image/svg+xml</dc:format>
        <dc:type
           rdf:resource="http://purl.org/dc/dcmitype/StillImage" />
      </cc:Work>
    </rdf:RDF>
  </metadata>
  <defs
     id="defs13" />
  <sodipodi:namedview
     pagecolor="#ffffff"
     bordercolor="#666666"
     borderopacity="1"
     objecttolerance="10"
     gridtolerance="10"
     guidetolerance="10"
     inkscape:pageopacity="0"
     inkscape:pageshadow="2"
     inkscape:window-width="1920"
     inkscape:window-height="987"
     id="namedview11"
     showgrid="false"
     inkscape:zoom="6.6203704"
     inkscape:cx="6.4897648"
     inkscape:cy="34.179936"
     inkscape:window-x="0"
     inkscape:window-y="0"
     inkscape:window-maximized="1"
     inkscape:current-layer="logo-mobile"
     inkscape:document-rotation="0" />
  <title
     id="title2">logo-mobile</title>
  <g
     id="Page-1"
     stroke="none"
     stroke-width="1"
     fill="none"
     fill-rule="evenodd">
    <g
       id="logo-mobile">
      <rect
         style="fill:#fdfdfd;fill-opacity:1;stroke:none;stroke-width:3.77953;stroke-opacity:1"
         id="rect838"
         width="50.000473"
         height="50.000473"
         x="1.9997635"
         y="1.9997635" />
      <rect
         id="Rectangle-6"
         stroke="#E5261F"
         stroke-width="4"
         fill-rule="nonzero"
         x="2"
         y="2"
         width="50"
         height="50"
         style="stroke:#002060;stroke-opacity:1;stroke-width:3.77952756;stroke-miterlimit:4;stroke-dasharray:none" />
      <g
         id="g918"
         transform="translate(-66.193325,-42.796982)"
         style="fill:#a00003;fill-opacity:1">
        <g
           aria-label="M"
           id="text18"
           style="font-style:normal;font-variant:normal;font-weight:normal;font-stretch:normal;font-size:33.3333px;line-height:1.25;font-family:'EB Garamond';-inkscape-font-specification:'EB Garamond, Normal';font-variant-ligatures:normal;font-variant-caps:normal;font-variant-numeric:normal;font-variant-east-asian:normal;letter-spacing:0px;word-spacing:0px;fill:#a00003;fill-opacity:1;stroke:none;stroke-width:0.5;stroke-miterlimit:4;stroke-dasharray:none;stroke-opacity:1">
          <path
             d="m 103.12665,75.39698 -0.56666,-10.99999 c -0.1,-1.899998 0.26666,-2.566664 1.29999,-2.999997 1.33334,-0.566666 1.6,-0.666666 1.6,-0.999999 0,-0.333333 -0.13333,-0.566666 -0.53333,-0.566666 -1.06667,0 -3.36666,0.333333 -4.23333,0.333333 -0.866666,0 -1.333332,0 -1.699998,0.766666 l -5.233328,10.866656 c -0.633333,1.266666 -0.766666,0.733333 -1.033333,0.03333 l -3.899996,-9.566658 c -0.633333,-1.499999 -1.199999,-2.099998 -2.099998,-2.099998 -1.533332,0 -2.499998,-0.166667 -3.699997,-0.166667 -0.399999,0 -1.133332,-0.03333 -1.133332,0.466667 0,0.533333 1.199999,1.033332 1.799998,1.599998 0.833333,0.766666 1.366666,1.399999 1.066666,3.766663 L 83.62667,74.69698 c -0.233333,1.666666 -0.799999,2.999998 -1.933332,3.499997 -0.766666,0.333333 -1.833331,0.5 -1.833331,0.999999 0,0.333333 0.733332,0.533333 1.099999,0.566666 0.233333,0 1.499998,-0.199999 3.066664,-0.199999 1.599998,0 3.066663,0.199999 3.299996,0.199999 0.366667,-0.03333 1.066666,-0.233333 1.066666,-0.566666 0,-0.499999 -1.099999,-0.666666 -1.833332,-0.999999 -0.866665,-0.399999 -1.099999,-2.033331 -1.033332,-2.93333 l 0.566666,-9.299992 c 0.03333,-0.833332 0.333333,-1.299998 0.833333,-0.03333 l 4.099996,10.49999 c 0.699999,1.799998 0.966666,2.066665 1.299999,2.066665 0.299999,0 1.699998,-2.866664 1.833331,-3.166664 L 98.659989,64.99699 c 0.233333,-0.6 0.833332,-0.733333 0.866666,-0.1 l 0.433333,10.49999 c 0.06666,1.233332 -0.433333,2.299998 -1.566666,2.799997 -0.733332,0.333333 -1.833331,0.5 -1.833331,0.999999 0,0.333333 0.733333,0.533333 1.099999,0.566666 0.233333,0 2.199998,-0.199999 3.76666,-0.199999 1.6,0 3.8,0.199999 4.03333,0.199999 0.36667,-0.03333 1.06667,-0.233333 1.06667,-0.566666 0,-0.499999 -1.1,-0.666666 -1.83333,-0.999999 -1.13334,-0.499999 -1.5,-1.566665 -1.56667,-2.799997 z"
             style="font-style:normal;font-variant:normal;font-weight:normal;font-stretch:normal;font-size:33.3333px;font-family:'EB Garamond';-inkscape-font-specification:'EB Garamond, Normal';font-variant-ligatures:normal;font-variant-caps:normal;font-variant-numeric:normal;font-variant-east-asian:normal;fill:#a00003;fill-opacity:1;stroke:none;stroke-width:0.5;stroke-miterlimit:4;stroke-dasharray:none;stroke-opacity:1"
             id="path837" />
        </g>
      </g>
    </g>
  </g>
</svg>
